# xmcd
#
# Track frame offsets:
#	150
#	19241
#	37613
#	58400
#	80920
#	100701
#	120727
#	137022
#	153959
#	167404
#
# Disc length: 2479 seconds
#
# Revision: 1
# Processed by: cddbd v1.4PL0 Copyright (c) Steve Scherf et al.
# Submitted via: CDmax 1.8
#
DISCID=7809ad0a
DTITLE=Rick Vito - Crazy Cool
DYEAR=2001
DGENRE=Blues
TTITLE0=Mr. Lucky
TTITLE1=Going Home
TTITLE2=Rockin' Just To Keep From Cryin'
TTITLE3=No Love In The City
TTITLE4=You Put A Spell On Me
TTITLE5=One Short Life
TTITLE6=Everybody Gets Lucky Sometimes
TTITLE7=Money And Love
TTITLE8=Crazy Cool
TTITLE9=Love Is Dangerous
EXTD=
EXTT0=
EXTT1=
EXTT2=
EXTT3=
EXTT4=
EXTT5=
EXTT6=
EXTT7=
EXTT8=
EXTT9=
PLAYORDER=
